# xmcd
#
# Track frame offsets: 
#        150
#        76722
#        133627
#        167147
#        229602
#        258565
#
# Disc length: 4326 seconds
#
# Revision: 6
# Processed by: cddbd v1.5.2PL0 Copyright (c) Steve Scherf et al.
# Submitted via: ExactAudioCopy v0.99pb5
#
DISCID=4210e406
DTITLE=Miles Davis - Miles in the sky
DYEAR=1968
DGENRE=Jazz
TTITLE0=Stuff
TTITLE1=Paraphernalia
TTITLE2=Black comedy
TTITLE3=Country son
TTITLE4=Black comedy [Alternate take] [Bonus]
TTITLE5=Country son [Alternate take] [Bonus]
EXTD=YEAR: 1998
EXTT0=
EXTT1=
EXTT2=
EXTT3=
EXTT4=
EXTT5=
PLAYORDER=
